<?xml version="1.0" encoding="utf-8"?>
<!-- Generator: Adobe Illustrator 27.3.1, SVG Export Plug-In . SVG Version: 6.00 Build 0)  -->
<svg version="1.1" id="Слой_1" xmlns="http://www.w3.org/2000/svg" xmlns:xlink="http://www.w3.org/1999/xlink" x="0px" y="0px"
	 viewBox="0 0 32 32" style="enable-background:new 0 0 32 32;" xml:space="preserve">
<style type="text/css">
	.st0{fill-rule:evenodd;clip-rule:evenodd;fill:#004A98;}
	.st1{fill-rule:evenodd;clip-rule:evenodd;fill:#FFFFFF;}
</style>
<rect class="st0" width="32" height="32"/>
<path class="st1" d="M16.1,17.5h2.6l-1,5.5c-7.4,0.5-15.1-2.5-15.1-7c0-2.3,2-4.3,5.1-5.6l0.5-2.9C3.3,9.2,0,12.3,0,16
	c0,5.4,7.2,9.7,16,9.7c1.5,0,2.9-0.1,4.2-0.3l1.4-7.9h3l0.4-2.5H17c0.4-3.6-1.6-3.6-4.4-3.6L13,9.1c1-0.1,2-0.2,3-0.2
	c7.4,0,13.4,3.2,13.4,7.1c0,2.6-2.6,4.8-6.4,6.1l-0.5,2.8C28.1,23.4,32,20,32,16c0-5.4-7.2-9.7-16-9.7c-2,0-3.8,0.2-5.6,0.6L8.3,19
	c1.3,0,4.2,0.1,5.5-0.2C14.8,18.7,15.5,18.2,16.1,17.5 M11.6,16.8l0.5-3.1c1.2,0,2.3-0.2,1.8,1.9C13.6,16.9,12.9,16.8,11.6,16.8z"/>
</svg>
